<svg xmlns="http://www.w3.org/2000/svg" viewBox="0 0 320 70">
  <defs>
    <linearGradient id="circleGrad" x1="0%" y1="0%" x2="100%" y2="100%">
      <stop offset="0%" stop-color="#ef4444"/>
      <stop offset="50%" stop-color="#dc2626"/>
      <stop offset="100%" stop-color="#991b1b"/>
    </linearGradient>
  </defs>
  <!-- Circle background -->
  <circle cx="35" cy="35" r="33" fill="url(#circleGrad)"/>
  <!-- Stylized R -->
  <path d="M22 52 L22 22 C22 18 26 15 32 15 L38 15 C46 15 50 19 50 25 C50 30 47 33 43 34 L52 52 L44 52 L36 35 L30 35 L30 52 Z M30 22 L30 29 L37 29 C41 29 43 27.5 43 25.5 C43 23.5 41 22 37 22 Z" fill="white"/>
  <!-- Company Name (white for dark backgrounds) -->
  <text x="78" y="32" font-family="'Plus Jakarta Sans', 'Segoe UI', Arial, sans-serif" font-size="26" font-weight="800" fill="#ffffff">Ravi Kale</text>
  <text x="78" y="56" font-family="'Plus Jakarta Sans', 'Segoe UI', Arial, sans-serif" font-size="22" font-weight="800" fill="#fb7185">Productions</text>
  <text x="230" y="46" font-family="'Plus Jakarta Sans', Arial, sans-serif" font-size="9" font-weight="600" fill="#64748b">TM</text>
  <!-- Tagline -->
  <text x="78" y="68" font-family="'Inter', 'Segoe UI', Arial, sans-serif" font-size="7.5" font-weight="600" fill="#64748b" letter-spacing="1.8">INSPIRED BY THE NEW GENERATION</text>
</svg>
